<svg xmlns="http://www.w3.org/2000/svg" viewBox="0 0 512 512">
  <rect width="512" height="512" rx="108" fill="#121212"/>
  <rect x="156" y="156" width="200" height="200" rx="20" fill="none" stroke="#22c55e" stroke-width="16"/>
  <rect x="196" y="196" width="120" height="120" rx="8" fill="#22c55e" opacity="0.15"/>
  <circle cx="226" cy="226" r="12" fill="#22c55e"/>
  <circle cx="286" cy="226" r="12" fill="#22c55e"/>
  <circle cx="226" cy="286" r="12" fill="#22c55e"/>
  <circle cx="286" cy="286" r="12" fill="#22c55e"/>
  <!-- Top pins -->
  <line x1="206" y1="156" x2="206" y2="116" stroke="#22c55e" stroke-width="10" stroke-linecap="round"/>
  <line x1="256" y1="156" x2="256" y2="116" stroke="#22c55e" stroke-width="10" stroke-linecap="round"/>
  <line x1="306" y1="156" x2="306" y2="116" stroke="#22c55e" stroke-width="10" stroke-linecap="round"/>
  <!-- Bottom pins -->
  <line x1="206" y1="356" x2="206" y2="396" stroke="#22c55e" stroke-width="10" stroke-linecap="round"/>
  <line x1="256" y1="356" x2="256" y2="396" stroke="#22c55e" stroke-width="10" stroke-linecap="round"/>
  <line x1="306" y1="356" x2="306" y2="396" stroke="#22c55e" stroke-width="10" stroke-linecap="round"/>
  <!-- Left pins -->
  <line x1="156" y1="206" x2="116" y2="206" stroke="#22c55e" stroke-width="10" stroke-linecap="round"/>
  <line x1="156" y1="256" x2="116" y2="256" stroke="#22c55e" stroke-width="10" stroke-linecap="round"/>
  <line x1="156" y1="306" x2="116" y2="306" stroke="#22c55e" stroke-width="10" stroke-linecap="round"/>
  <!-- Right pins -->
  <line x1="356" y1="206" x2="396" y2="206" stroke="#22c55e" stroke-width="10" stroke-linecap="round"/>
  <line x1="356" y1="256" x2="396" y2="256" stroke="#22c55e" stroke-width="10" stroke-linecap="round"/>
  <line x1="356" y1="306" x2="396" y2="306" stroke="#22c55e" stroke-width="10" stroke-linecap="round"/>
  <!-- EDA text -->
  <text x="256" y="268" font-family="system-ui, sans-serif" font-size="48" font-weight="700" fill="#22c55e" text-anchor="middle" dominant-baseline="central">EDA</text>
</svg>
